<svg class="lds-spinner" width="57px"  height="57px"  xmlns="http://www.w3.org/2000/svg" xmlns:xlink="http://www.w3.org/1999/xlink" viewBox="0 0 100 100" preserveAspectRatio="xMidYMid" style="background: none;"><g transform="rotate(0 50 50)">
  <rect x="48" y="24" rx="4.8" ry="2.4" width="4" height="12" fill="#6e6e6e">
    <animate attributeName="opacity" values="1;0" times="0;1" dur="0.7s" begin="-0.63s" repeatCount="indefinite"></animate>
  </rect>
</g><g transform="rotate(36 50 50)">
  <rect x="48" y="24" rx="4.8" ry="2.4" width="4" height="12" fill="#6e6e6e">
    <animate attributeName="opacity" values="1;0" times="0;1" dur="0.7s" begin="-0.5599999999999999s" repeatCount="indefinite"></animate>
  </rect>
</g><g transform="rotate(72 50 50)">
  <rect x="48" y="24" rx="4.8" ry="2.4" width="4" height="12" fill="#6e6e6e">
    <animate attributeName="opacity" values="1;0" times="0;1" dur="0.7s" begin="-0.48999999999999994s" repeatCount="indefinite"></animate>
  </rect>
</g><g transform="rotate(108 50 50)">
  <rect x="48" y="24" rx="4.8" ry="2.4" width="4" height="12" fill="#6e6e6e">
    <animate attributeName="opacity" values="1;0" times="0;1" dur="0.7s" begin="-0.41999999999999993s" repeatCount="indefinite"></animate>
  </rect>
</g><g transform="rotate(144 50 50)">
  <rect x="48" y="24" rx="4.8" ry="2.4" width="4" height="12" fill="#6e6e6e">
    <animate attributeName="opacity" values="1;0" times="0;1" dur="0.7s" begin="-0.35s" repeatCount="indefinite"></animate>
  </rect>
</g><g transform="rotate(180 50 50)">
  <rect x="48" y="24" rx="4.8" ry="2.4" width="4" height="12" fill="#6e6e6e">
    <animate attributeName="opacity" values="1;0" times="0;1" dur="0.7s" begin="-0.27999999999999997s" repeatCount="indefinite"></animate>
  </rect>
</g><g transform="rotate(216 50 50)">
  <rect x="48" y="24" rx="4.8" ry="2.4" width="4" height="12" fill="#6e6e6e">
    <animate attributeName="opacity" values="1;0" times="0;1" dur="0.7s" begin="-0.20999999999999996s" repeatCount="indefinite"></animate>
  </rect>
</g><g transform="rotate(252 50 50)">
  <rect x="48" y="24" rx="4.8" ry="2.4" width="4" height="12" fill="#6e6e6e">
    <animate attributeName="opacity" values="1;0" times="0;1" dur="0.7s" begin="-0.13999999999999999s" repeatCount="indefinite"></animate>
  </rect>
</g><g transform="rotate(288 50 50)">
  <rect x="48" y="24" rx="4.8" ry="2.4" width="4" height="12" fill="#6e6e6e">
    <animate attributeName="opacity" values="1;0" times="0;1" dur="0.7s" begin="-0.06999999999999999s" repeatCount="indefinite"></animate>
  </rect>
</g><g transform="rotate(324 50 50)">
  <rect x="48" y="24" rx="4.8" ry="2.4" width="4" height="12" fill="#6e6e6e">
    <animate attributeName="opacity" values="1;0" times="0;1" dur="0.7s" begin="0s" repeatCount="indefinite"></animate>
  </rect>
</g></svg>